<svg xmlns="http://www.w3.org/2000/svg" width="1320" height="1504" viewBox="0 0 1320 1504"><style>text{font:12px sans-serif;fill:#302215}</style><rect width="100%" height="100%" fill="#f7ead0"/><text x="8" y="20">STATIC ALPHA WORKSHEET · green=frame occupancy, blue=author region, pink=region occupancy · NOT registration/anatomy/motion approval</text><g transform="translate(0,44)"><text x="6" y="14">r1-c1 · 359×274</text>
<svg x="6" y="22" width="318" height="302" viewBox="0 0 359 274" preserveAspectRatio="xMidYMid meet"><rect width="359" height="274" fill="#fff4dd"/>
<image href="source.png" x="0" y="0" width="1437" height="1095"/>
<rect x="135" y="9" width="126" height="256" fill="none" stroke="#158646" stroke-width="1" vector-effect="non-scaling-stroke"/><rect x="0" y="0" width="359" height="117" fill="none" stroke="#2576c2" stroke-width="1" vector-effect="non-scaling-stroke"/><rect x="135" y="9" width="118" height="108" fill="none" stroke="#df2477" stroke-width="1" vector-effect="non-scaling-stroke"/><rect x="0" y="213" width="179" height="61" fill="none" stroke="#2576c2" stroke-width="1" vector-effect="non-scaling-stroke"/><rect x="140" y="213" width="39" height="52" fill="none" stroke="#df2477" stroke-width="1" vector-effect="non-scaling-stroke"/><rect x="179" y="213" width="180" height="61" fill="none" stroke="#2576c2" stroke-width="1" vector-effect="non-scaling-stroke"/><rect x="179" y="213" width="72" height="52" fill="none" stroke="#df2477" stroke-width="1" vector-effect="non-scaling-stroke"/></svg>
<text x="6" y="340">Alpha ≥ 128; frame edges: none</text></g>
<g transform="translate(330,44)"><text x="6" y="14">r1-c2 · 360×274</text>
<svg x="6" y="22" width="318" height="302" viewBox="0 0 360 274" preserveAspectRatio="xMidYMid meet"><rect width="360" height="274" fill="#fff4dd"/>
<image href="source.png" x="-359" y="0" width="1437" height="1095"/>
<rect x="109" y="8" width="150" height="256" fill="none" stroke="#158646" stroke-width="1" vector-effect="non-scaling-stroke"/><rect x="0" y="0" width="360" height="117" fill="none" stroke="#2576c2" stroke-width="1" vector-effect="non-scaling-stroke"/><rect x="132" y="8" width="117" height="109" fill="none" stroke="#df2477" stroke-width="1" vector-effect="non-scaling-stroke"/><rect x="0" y="213" width="180" height="61" fill="none" stroke="#2576c2" stroke-width="1" vector-effect="non-scaling-stroke"/><rect x="138" y="213" width="42" height="51" fill="none" stroke="#df2477" stroke-width="1" vector-effect="non-scaling-stroke"/><rect x="180" y="213" width="180" height="61" fill="none" stroke="#2576c2" stroke-width="1" vector-effect="non-scaling-stroke"/><rect x="180" y="213" width="69" height="51" fill="none" stroke="#df2477" stroke-width="1" vector-effect="non-scaling-stroke"/></svg>
<text x="6" y="340">Alpha ≥ 128; frame edges: none</text></g>
<g transform="translate(660,44)"><text x="6" y="14">r1-c3 · 359×274</text>
<svg x="6" y="22" width="318" height="302" viewBox="0 0 359 274" preserveAspectRatio="xMidYMid meet"><rect width="359" height="274" fill="#fff4dd"/>
<image href="source.png" x="-719" y="0" width="1437" height="1095"/>
<rect x="94" y="9" width="165" height="255" fill="none" stroke="#158646" stroke-width="1" vector-effect="non-scaling-stroke"/><rect x="0" y="0" width="359" height="117" fill="none" stroke="#2576c2" stroke-width="1" vector-effect="non-scaling-stroke"/><rect x="132" y="9" width="116" height="108" fill="none" stroke="#df2477" stroke-width="1" vector-effect="non-scaling-stroke"/><rect x="0" y="213" width="179" height="61" fill="none" stroke="#2576c2" stroke-width="1" vector-effect="non-scaling-stroke"/><rect x="137" y="213" width="42" height="51" fill="none" stroke="#df2477" stroke-width="1" vector-effect="non-scaling-stroke"/><rect x="179" y="213" width="180" height="61" fill="none" stroke="#2576c2" stroke-width="1" vector-effect="non-scaling-stroke"/><rect x="179" y="213" width="70" height="51" fill="none" stroke="#df2477" stroke-width="1" vector-effect="non-scaling-stroke"/></svg>
<text x="6" y="340">Alpha ≥ 128; frame edges: none</text></g>
<g transform="translate(990,44)"><text x="6" y="14">r1-c4 · 359×274</text>
<svg x="6" y="22" width="318" height="302" viewBox="0 0 359 274" preserveAspectRatio="xMidYMid meet"><rect width="359" height="274" fill="#fff4dd"/>
<image href="source.png" x="-1078" y="0" width="1437" height="1095"/>
<rect x="76" y="8" width="184" height="256" fill="none" stroke="#158646" stroke-width="1" vector-effect="non-scaling-stroke"/><rect x="0" y="0" width="359" height="117" fill="none" stroke="#2576c2" stroke-width="1" vector-effect="non-scaling-stroke"/><rect x="76" y="8" width="172" height="109" fill="none" stroke="#df2477" stroke-width="1" vector-effect="non-scaling-stroke"/><rect x="0" y="213" width="179" height="61" fill="none" stroke="#2576c2" stroke-width="1" vector-effect="non-scaling-stroke"/><rect x="137" y="213" width="42" height="51" fill="none" stroke="#df2477" stroke-width="1" vector-effect="non-scaling-stroke"/><rect x="179" y="213" width="180" height="61" fill="none" stroke="#2576c2" stroke-width="1" vector-effect="non-scaling-stroke"/><rect x="179" y="213" width="70" height="51" fill="none" stroke="#df2477" stroke-width="1" vector-effect="non-scaling-stroke"/></svg>
<text x="6" y="340">Alpha ≥ 128; frame edges: none</text></g>
<g transform="translate(0,404)"><text x="6" y="14">r2-c1 · 359×274</text>
<svg x="6" y="22" width="318" height="302" viewBox="0 0 359 274" preserveAspectRatio="xMidYMid meet"><rect width="359" height="274" fill="#fff4dd"/>
<image href="source.png" x="0" y="-274" width="1437" height="1095"/>
<rect x="77" y="5" width="185" height="257" fill="none" stroke="#158646" stroke-width="1" vector-effect="non-scaling-stroke"/><rect x="0" y="0" width="359" height="117" fill="none" stroke="#2576c2" stroke-width="1" vector-effect="non-scaling-stroke"/><rect x="77" y="5" width="178" height="112" fill="none" stroke="#df2477" stroke-width="1" vector-effect="non-scaling-stroke"/><rect x="0" y="213" width="179" height="61" fill="none" stroke="#2576c2" stroke-width="1" vector-effect="non-scaling-stroke"/><rect x="139" y="213" width="40" height="49" fill="none" stroke="#df2477" stroke-width="1" vector-effect="non-scaling-stroke"/><rect x="179" y="213" width="180" height="61" fill="none" stroke="#2576c2" stroke-width="1" vector-effect="non-scaling-stroke"/><rect x="179" y="213" width="71" height="49" fill="none" stroke="#df2477" stroke-width="1" vector-effect="non-scaling-stroke"/></svg>
<text x="6" y="340">Alpha ≥ 128; frame edges: none</text></g>
<g transform="translate(330,404)"><text x="6" y="14">r2-c2 · 360×274</text>
<svg x="6" y="22" width="318" height="302" viewBox="0 0 360 274" preserveAspectRatio="xMidYMid meet"><rect width="360" height="274" fill="#fff4dd"/>
<image href="source.png" x="-359" y="-274" width="1437" height="1095"/>
<rect x="68" y="5" width="195" height="258" fill="none" stroke="#158646" stroke-width="1" vector-effect="non-scaling-stroke"/><rect x="0" y="0" width="360" height="117" fill="none" stroke="#2576c2" stroke-width="1" vector-effect="non-scaling-stroke"/><rect x="68" y="5" width="186" height="112" fill="none" stroke="#df2477" stroke-width="1" vector-effect="non-scaling-stroke"/><rect x="0" y="213" width="180" height="61" fill="none" stroke="#2576c2" stroke-width="1" vector-effect="non-scaling-stroke"/><rect x="139" y="213" width="41" height="49" fill="none" stroke="#df2477" stroke-width="1" vector-effect="non-scaling-stroke"/><rect x="180" y="213" width="180" height="61" fill="none" stroke="#2576c2" stroke-width="1" vector-effect="non-scaling-stroke"/><rect x="180" y="213" width="70" height="50" fill="none" stroke="#df2477" stroke-width="1" vector-effect="non-scaling-stroke"/></svg>
<text x="6" y="340">Alpha ≥ 128; frame edges: none</text></g>
<g transform="translate(660,404)"><text x="6" y="14">r2-c3 · 359×274</text>
<svg x="6" y="22" width="318" height="302" viewBox="0 0 359 274" preserveAspectRatio="xMidYMid meet"><rect width="359" height="274" fill="#fff4dd"/>
<image href="source.png" x="-719" y="-274" width="1437" height="1095"/>
<rect x="63" y="5" width="199" height="258" fill="none" stroke="#158646" stroke-width="1" vector-effect="non-scaling-stroke"/><rect x="0" y="0" width="359" height="117" fill="none" stroke="#2576c2" stroke-width="1" vector-effect="non-scaling-stroke"/><rect x="63" y="5" width="190" height="112" fill="none" stroke="#df2477" stroke-width="1" vector-effect="non-scaling-stroke"/><rect x="0" y="213" width="179" height="61" fill="none" stroke="#2576c2" stroke-width="1" vector-effect="non-scaling-stroke"/><rect x="138" y="213" width="41" height="49" fill="none" stroke="#df2477" stroke-width="1" vector-effect="non-scaling-stroke"/><rect x="179" y="213" width="180" height="61" fill="none" stroke="#2576c2" stroke-width="1" vector-effect="non-scaling-stroke"/><rect x="179" y="213" width="71" height="50" fill="none" stroke="#df2477" stroke-width="1" vector-effect="non-scaling-stroke"/></svg>
<text x="6" y="340">Alpha ≥ 128; frame edges: none</text></g>
<g transform="translate(990,404)"><text x="6" y="14">r2-c4 · 359×274</text>
<svg x="6" y="22" width="318" height="302" viewBox="0 0 359 274" preserveAspectRatio="xMidYMid meet"><rect width="359" height="274" fill="#fff4dd"/>
<image href="source.png" x="-1078" y="-274" width="1437" height="1095"/>
<rect x="59" y="5" width="203" height="257" fill="none" stroke="#158646" stroke-width="1" vector-effect="non-scaling-stroke"/><rect x="0" y="0" width="359" height="117" fill="none" stroke="#2576c2" stroke-width="1" vector-effect="non-scaling-stroke"/><rect x="59" y="5" width="194" height="112" fill="none" stroke="#df2477" stroke-width="1" vector-effect="non-scaling-stroke"/><rect x="0" y="213" width="179" height="61" fill="none" stroke="#2576c2" stroke-width="1" vector-effect="non-scaling-stroke"/><rect x="137" y="213" width="42" height="49" fill="none" stroke="#df2477" stroke-width="1" vector-effect="non-scaling-stroke"/><rect x="179" y="213" width="180" height="61" fill="none" stroke="#2576c2" stroke-width="1" vector-effect="non-scaling-stroke"/><rect x="179" y="213" width="70" height="49" fill="none" stroke="#df2477" stroke-width="1" vector-effect="non-scaling-stroke"/></svg>
<text x="6" y="340">Alpha ≥ 128; frame edges: none</text></g>
<g transform="translate(0,764)"><text x="6" y="14">r3-c1 · 359×273</text>
<svg x="6" y="22" width="318" height="302" viewBox="0 0 359 273" preserveAspectRatio="xMidYMid meet"><rect width="359" height="273" fill="#fff4dd"/>
<image href="source.png" x="0" y="-548" width="1437" height="1095"/>
<rect x="65" y="1" width="198" height="272" fill="none" stroke="#158646" stroke-width="1" vector-effect="non-scaling-stroke"/><rect x="0" y="0" width="359" height="117" fill="none" stroke="#2576c2" stroke-width="1" vector-effect="non-scaling-stroke"/><rect x="65" y="1" width="189" height="116" fill="none" stroke="#df2477" stroke-width="1" vector-effect="non-scaling-stroke"/><rect x="0" y="212" width="179" height="61" fill="none" stroke="#2576c2" stroke-width="1" vector-effect="non-scaling-stroke"/><rect x="139" y="212" width="39" height="47" fill="none" stroke="#df2477" stroke-width="1" vector-effect="non-scaling-stroke"/><rect x="179" y="212" width="180" height="61" fill="none" stroke="#2576c2" stroke-width="1" vector-effect="non-scaling-stroke"/><rect x="180" y="212" width="71" height="61" fill="none" stroke="#df2477" stroke-width="1" vector-effect="non-scaling-stroke"/></svg>
<text x="6" y="340">Alpha ≥ 128; frame edges: bottom</text></g>
<g transform="translate(330,764)"><text x="6" y="14">r3-c2 · 360×273</text>
<svg x="6" y="22" width="318" height="302" viewBox="0 0 360 273" preserveAspectRatio="xMidYMid meet"><rect width="360" height="273" fill="#fff4dd"/>
<image href="source.png" x="-359" y="-548" width="1437" height="1095"/>
<rect x="69" y="1" width="192" height="272" fill="none" stroke="#158646" stroke-width="1" vector-effect="non-scaling-stroke"/><rect x="0" y="0" width="360" height="117" fill="none" stroke="#2576c2" stroke-width="1" vector-effect="non-scaling-stroke"/><rect x="69" y="1" width="184" height="116" fill="none" stroke="#df2477" stroke-width="1" vector-effect="non-scaling-stroke"/><rect x="0" y="212" width="180" height="61" fill="none" stroke="#2576c2" stroke-width="1" vector-effect="non-scaling-stroke"/><rect x="138" y="212" width="42" height="47" fill="none" stroke="#df2477" stroke-width="1" vector-effect="non-scaling-stroke"/><rect x="180" y="212" width="180" height="61" fill="none" stroke="#2576c2" stroke-width="1" vector-effect="non-scaling-stroke"/><rect x="180" y="212" width="69" height="61" fill="none" stroke="#df2477" stroke-width="1" vector-effect="non-scaling-stroke"/></svg>
<text x="6" y="340">Alpha ≥ 128; frame edges: bottom</text></g>
<g transform="translate(660,764)"><text x="6" y="14">r3-c3 · 359×273</text>
<svg x="6" y="22" width="318" height="302" viewBox="0 0 359 273" preserveAspectRatio="xMidYMid meet"><rect width="359" height="273" fill="#fff4dd"/>
<image href="source.png" x="-719" y="-548" width="1437" height="1095"/>
<rect x="93" y="1" width="168" height="272" fill="none" stroke="#158646" stroke-width="1" vector-effect="non-scaling-stroke"/><rect x="0" y="0" width="359" height="117" fill="none" stroke="#2576c2" stroke-width="1" vector-effect="non-scaling-stroke"/><rect x="94" y="1" width="158" height="116" fill="none" stroke="#df2477" stroke-width="1" vector-effect="non-scaling-stroke"/><rect x="0" y="212" width="179" height="61" fill="none" stroke="#2576c2" stroke-width="1" vector-effect="non-scaling-stroke"/><rect x="137" y="212" width="42" height="47" fill="none" stroke="#df2477" stroke-width="1" vector-effect="non-scaling-stroke"/><rect x="179" y="212" width="180" height="61" fill="none" stroke="#2576c2" stroke-width="1" vector-effect="non-scaling-stroke"/><rect x="179" y="212" width="70" height="61" fill="none" stroke="#df2477" stroke-width="1" vector-effect="non-scaling-stroke"/></svg>
<text x="6" y="340">Alpha ≥ 128; frame edges: bottom</text></g>
<g transform="translate(990,764)"><text x="6" y="14">r3-c4 · 359×273</text>
<svg x="6" y="22" width="318" height="302" viewBox="0 0 359 273" preserveAspectRatio="xMidYMid meet"><rect width="359" height="273" fill="#fff4dd"/>
<image href="source.png" x="-1078" y="-548" width="1437" height="1095"/>
<rect x="112" y="1" width="149" height="272" fill="none" stroke="#158646" stroke-width="1" vector-effect="non-scaling-stroke"/><rect x="0" y="0" width="359" height="117" fill="none" stroke="#2576c2" stroke-width="1" vector-effect="non-scaling-stroke"/><rect x="112" y="1" width="140" height="116" fill="none" stroke="#df2477" stroke-width="1" vector-effect="non-scaling-stroke"/><rect x="0" y="212" width="179" height="61" fill="none" stroke="#2576c2" stroke-width="1" vector-effect="non-scaling-stroke"/><rect x="137" y="212" width="42" height="47" fill="none" stroke="#df2477" stroke-width="1" vector-effect="non-scaling-stroke"/><rect x="179" y="212" width="180" height="61" fill="none" stroke="#2576c2" stroke-width="1" vector-effect="non-scaling-stroke"/><rect x="179" y="212" width="70" height="61" fill="none" stroke="#df2477" stroke-width="1" vector-effect="non-scaling-stroke"/></svg>
<text x="6" y="340">Alpha ≥ 128; frame edges: bottom</text></g>
<g transform="translate(0,1124)"><text x="6" y="14">r4-c1 · 359×274</text>
<svg x="6" y="22" width="318" height="302" viewBox="0 0 359 274" preserveAspectRatio="xMidYMid meet"><rect width="359" height="274" fill="#fff4dd"/>
<image href="source.png" x="0" y="-821" width="1437" height="1095"/>
<rect x="122" y="0" width="140" height="255" fill="none" stroke="#158646" stroke-width="1" vector-effect="non-scaling-stroke"/><rect x="0" y="0" width="359" height="117" fill="none" stroke="#2576c2" stroke-width="1" vector-effect="non-scaling-stroke"/><rect x="137" y="0" width="118" height="117" fill="none" stroke="#df2477" stroke-width="1" vector-effect="non-scaling-stroke"/><rect x="0" y="213" width="179" height="61" fill="none" stroke="#2576c2" stroke-width="1" vector-effect="non-scaling-stroke"/><rect x="139" y="213" width="39" height="42" fill="none" stroke="#df2477" stroke-width="1" vector-effect="non-scaling-stroke"/><rect x="179" y="213" width="180" height="61" fill="none" stroke="#2576c2" stroke-width="1" vector-effect="non-scaling-stroke"/><rect x="213" y="213" width="39" height="42" fill="none" stroke="#df2477" stroke-width="1" vector-effect="non-scaling-stroke"/></svg>
<text x="6" y="340">Alpha ≥ 128; frame edges: top</text></g>
<g transform="translate(330,1124)"><text x="6" y="14">r4-c2 · 360×274</text>
<svg x="6" y="22" width="318" height="302" viewBox="0 0 360 274" preserveAspectRatio="xMidYMid meet"><rect width="360" height="274" fill="#fff4dd"/>
<image href="source.png" x="-359" y="-821" width="1437" height="1095"/>
<rect x="119" y="0" width="142" height="255" fill="none" stroke="#158646" stroke-width="1" vector-effect="non-scaling-stroke"/><rect x="0" y="0" width="360" height="117" fill="none" stroke="#2576c2" stroke-width="1" vector-effect="non-scaling-stroke"/><rect x="136" y="0" width="118" height="117" fill="none" stroke="#df2477" stroke-width="1" vector-effect="non-scaling-stroke"/><rect x="0" y="213" width="180" height="61" fill="none" stroke="#2576c2" stroke-width="1" vector-effect="non-scaling-stroke"/><rect x="139" y="213" width="38" height="42" fill="none" stroke="#df2477" stroke-width="1" vector-effect="non-scaling-stroke"/><rect x="180" y="213" width="180" height="61" fill="none" stroke="#2576c2" stroke-width="1" vector-effect="non-scaling-stroke"/><rect x="212" y="213" width="39" height="42" fill="none" stroke="#df2477" stroke-width="1" vector-effect="non-scaling-stroke"/></svg>
<text x="6" y="340">Alpha ≥ 128; frame edges: top</text></g>
<g transform="translate(660,1124)"><text x="6" y="14">r4-c3 · 359×274</text>
<svg x="6" y="22" width="318" height="302" viewBox="0 0 359 274" preserveAspectRatio="xMidYMid meet"><rect width="359" height="274" fill="#fff4dd"/>
<image href="source.png" x="-719" y="-821" width="1437" height="1095"/>
<rect x="129" y="0" width="133" height="256" fill="none" stroke="#158646" stroke-width="1" vector-effect="non-scaling-stroke"/><rect x="0" y="0" width="359" height="117" fill="none" stroke="#2576c2" stroke-width="1" vector-effect="non-scaling-stroke"/><rect x="135" y="0" width="117" height="117" fill="none" stroke="#df2477" stroke-width="1" vector-effect="non-scaling-stroke"/><rect x="0" y="213" width="179" height="61" fill="none" stroke="#2576c2" stroke-width="1" vector-effect="non-scaling-stroke"/><rect x="137" y="213" width="38" height="43" fill="none" stroke="#df2477" stroke-width="1" vector-effect="non-scaling-stroke"/><rect x="179" y="213" width="180" height="61" fill="none" stroke="#2576c2" stroke-width="1" vector-effect="non-scaling-stroke"/><rect x="211" y="213" width="38" height="42" fill="none" stroke="#df2477" stroke-width="1" vector-effect="non-scaling-stroke"/></svg>
<text x="6" y="340">Alpha ≥ 128; frame edges: top</text></g>
<g transform="translate(990,1124)"><text x="6" y="14">r4-c4 · 359×274</text>
<svg x="6" y="22" width="318" height="302" viewBox="0 0 359 274" preserveAspectRatio="xMidYMid meet"><rect width="359" height="274" fill="#fff4dd"/>
<image href="source.png" x="-1078" y="-821" width="1437" height="1095"/>
<rect x="135" y="0" width="126" height="255" fill="none" stroke="#158646" stroke-width="1" vector-effect="non-scaling-stroke"/><rect x="0" y="0" width="359" height="117" fill="none" stroke="#2576c2" stroke-width="1" vector-effect="non-scaling-stroke"/><rect x="135" y="0" width="117" height="117" fill="none" stroke="#df2477" stroke-width="1" vector-effect="non-scaling-stroke"/><rect x="0" y="213" width="179" height="61" fill="none" stroke="#2576c2" stroke-width="1" vector-effect="non-scaling-stroke"/><rect x="138" y="213" width="38" height="42" fill="none" stroke="#df2477" stroke-width="1" vector-effect="non-scaling-stroke"/><rect x="179" y="213" width="180" height="61" fill="none" stroke="#2576c2" stroke-width="1" vector-effect="non-scaling-stroke"/><rect x="212" y="213" width="38" height="42" fill="none" stroke="#df2477" stroke-width="1" vector-effect="non-scaling-stroke"/></svg>
<text x="6" y="340">Alpha ≥ 128; frame edges: top</text></g></svg>
